<svg id="Layer_1" data-name="Layer 1" xmlns="http://www.w3.org/2000/svg" viewBox="0 0 704.12 363.14"><defs><style>.cls-1{fill:none;stroke:#fff;stroke-miterlimit:10;stroke-width:6px;}</style></defs><path class="cls-1" d="M344.8,584.92c7.64,1.55,12.06-7.75,14.76-15.12,11.88-32.4-10.12-66.16-13.86-73,0,0-.83-1.52-1.52-2.71-17.48-30-105.64-104.29-194.12-76.47-29.26,9.2-72.53,33.87-69.12,58.82,2.24,16.38,22.76,33.69,42.65,33.83,31.76.2,46.2-43.35,79.41-39.71,2.46.27,9,2.63,22.06,7.35,32.74,11.84,34.56,16.2,44.12,17.65,27.55,4.17,53.42-25.89,69.11-44.12,16.31-18.94,35-40.69,30.89-67.65C366.6,367,355,347,342.71,347c-16.9-.05-36.52,37.38-32.36,70.59C313.81,445.2,334,472,360.08,480a53.18,53.18,0,0,0,12,2.27c22.43,1.34,38.38-13.36,67.64-41.17C451.57,429.89,473,408,482.41,382.29c.76-2.07,1.33-3.84,1.39-4,4.49-14.17,7.79-36.52,1.55-50.39-11-24.51-59.2-38.9-85.29-17.64-21,17.14-20.14,51.27-11.77,72.05,9.13,22.66,31.09,38.15,75,69.12,3,2.11,11.16,7.8,21.55,16.35,7.55,6.21,17.74,14.6,27,24.83,16,17.74,30.48,33.71,27.94,52.94-1.42,10.83-8.49,24.61-20.58,29.41-25.67,10.19-60.76-25.38-76.47-50a118.58,118.58,0,0,1-17.65-47.06c-.95-6.87-6.14-44.64,14.7-73.53,4.82-6.67,7.74-8.32,11.77-16.17.76-1.48,15.51-31,2.94-45.59-7.3-8.46-24.52-12.68-33.82-5.88C396.83,354.1,427,442.15,441.24,483.76c12.32,36,25.1,63.48,16.17,97.06-2.48,9.33-7.88,28.56-23.53,33.83-11,3.71-24.94-.26-32.35-8.83-18.57-21.48,7.91-67.18,10.15-71a115.79,115.79,0,0,1,9-12.86c13.13-16.49,27-25.32,48.53-38.24,42.73-25.58,40.18-21.86,47.06-27.94,9.69-8.56,33.25-29.39,30.88-55.88-1.47-16.35-12.83-35.15-25-35.29-13.25-.16-26.9,21.77-27.94,41.17-2.12,39.53,48,70.48,72.06,85.3,20.7,12.77,57.21,34.62,107.35,32.35,29.94-1.36,48.65-10.59,83.82-27.94,7.92-3.91,17.65-9.17,20.59-19.12,4.69-15.88-11.09-33-13.24-35.29-31.14-33.73-96.72-21-129.41-14.71-26.6,5.15-53,10.57-80.88,30.88-13.59,9.91-38.82,28.29-50,60.3-10.85,31.08,3,42.1-8.82,79.41-5.37,16.9-12.49,39.27-33.83,51.47-21.15,12.1-52.6,12.1-70.58-4.41-24.39-22.39-16-67.81-4.42-92.65,11.86-25.34,29.29-33.91,25-47.06-4.34-13.3-26.77-18.6-41.82-17.71-23.43,1.39-37.27,18.29-39.6,21.24-12.59,15.94-13.28,34.78-10.8,47.16C320.57,559.88,333.75,582.67,344.8,584.92Z" transform="translate(-77.75 -296.91)"/></svg>